<?xml version="1.0" encoding="utf-8"?>
<!-- Generator: Adobe Illustrator 21.1.0, SVG Export Plug-In . SVG Version: 6.00 Build 0)  -->
<svg version="1.1" id="Camada_1" xmlns="http://www.w3.org/2000/svg" xmlns:xlink="http://www.w3.org/1999/xlink" x="0px" y="0px"
	 viewBox="0 0 563 455" style="enable-background:new 0 0 563 455;" xml:space="preserve">
<style type="text/css">
	.st0{fill:none;stroke:#36A0B0;stroke-width:6.3785;stroke-linecap:round;stroke-linejoin:round;stroke-miterlimit:10;}
	.st1{fill:none;stroke:#36A0B0;stroke-width:9.9222;stroke-linecap:round;stroke-linejoin:round;stroke-miterlimit:10;}
	.st2{fill:#36A0B0;}
	.st3{fill:#11EAA5;}
	.st4{fill:#45CFD9;}
	.st5{fill:#139486;}
</style>
<g>
	<polygon class="st0" points="191.6,107 255.4,43.2 272.9,130.6 221.4,204.8 	"/>
	<polyline class="st0" points="255.4,43.2 331.9,65.4 272.9,130.6 336.6,215.2 221.4,204.8 284.2,281.8 148.1,284.1 151,195.3 
		152.2,192.7 191.6,107 	"/>
	<line class="st1" x1="216.6" y1="204.8" x2="152.2" y2="192.7"/>
	<line class="st0" x1="223.3" y1="207.1" x2="148.1" y2="284.1"/>
	<polygon class="st0" points="284.2,281.8 336.6,215.2 358,309.8 	"/>
	<path class="st0" d="M331.9,65.4l54.5,66.9l-113.5-1.7c0,0-79.8-18.8-80.5-21.2c-0.7-2.4-0.7-2.4-0.7-2.4"/>
	<polyline class="st0" points="358,309.8 399.5,231.8 386.4,132.2 333.2,215.2 	"/>
	<line class="st0" x1="399.5" y1="231.8" x2="336.6" y2="215.2"/>
	<circle class="st2" cx="153.9" cy="285" r="17.4"/>
	<circle class="st2" cx="152.2" cy="192.7" r="17.4"/>
	<circle class="st2" cx="336.6" cy="215.2" r="17.4"/>
	<circle class="st2" cx="272.9" cy="126.9" r="17.4"/>
	<circle class="st2" cx="223.3" cy="204.8" r="17.4"/>
	<circle class="st2" cx="191.6" cy="109.5" r="14.4"/>
	<circle class="st2" cx="358" cy="306.6" r="17.4"/>
	<circle class="st2" cx="382.2" cy="133.3" r="14.2"/>
	<circle class="st2" cx="396.4" cy="231.8" r="14.2"/>
	<circle class="st3" cx="220.1" cy="201.6" r="14.2"/>
	<circle class="st3" cx="333.2" cy="65.4" r="14.2"/>
	<circle class="st4" cx="189" cy="109.5" r="14.2"/>
	<circle class="st4" cx="395" cy="227.7" r="14.2"/>
	<circle class="st4" cx="284.2" cy="279.8" r="14.2"/>
	<circle class="st2" cx="255.5" cy="45.6" r="10.8"/>
	<circle class="st5" cx="158.9" cy="279.8" r="17.4"/>
	<circle class="st5" cx="358" cy="302.3" r="17.4"/>
	<circle class="st5" cx="270.7" cy="128" r="17.4"/>
</g>
<g>
	<g>
		<path class="st2" d="M126.4,346h15.4c4.5,0,6.7,2.1,6.7,6.3v11.3c0,2.5-0.9,4-2.8,4.4c1.9,0.5,2.8,1.9,2.8,4.1v12.2
			c0,4.2-2.2,6.3-6.7,6.3h-15.4V346z M142,363.3v-10.2c0-0.9-0.1-1.4-0.4-1.7c-0.3-0.3-0.9-0.4-1.7-0.4h-7.1v14.3h7.1
			c0.9,0,1.4-0.1,1.7-0.4C141.9,364.7,142,364.2,142,363.3z M142,383.4v-11c0-0.9-0.1-1.4-0.4-1.7c-0.3-0.3-0.9-0.4-1.7-0.4h-7.1
			v15.1h7.1c0.9,0,1.4-0.1,1.7-0.4C141.9,384.9,142,384.3,142,383.4z"/>
		<path class="st2" d="M161.9,385.4h11v5.2h-17.4V346h6.4V385.4z"/>
		<path class="st2" d="M193.2,390.6l-1.8-10.3h-9.4l-1.6,10.3H174l7.9-44.5h9.3l8.5,44.5H193.2z M182.8,375.1h7.8l-4.1-23.5
			L182.8,375.1z"/>
		<path class="st2" d="M204.3,390.6V346h6.4v44.5H204.3z M227.2,346l-9.4,22.3l9.3,22.2h-7l-9-22.2l9.2-22.3H227.2z"/>
		<path class="st2" d="M242,337.7h6.2V399H242V337.7z"/>
		<path class="st2" d="M279,383.3v-10.9c0-0.9-0.1-1.4-0.4-1.7c-0.3-0.3-0.8-0.4-1.7-0.4h-5.3c-4.3,0-6.5-2.1-6.5-6.3v-11.7
			c0-4.2,2.2-6.3,6.6-6.3h7c4.4,0,6.6,2.1,6.6,6.3v6.5H279v-5.5c0-0.9-0.1-1.4-0.4-1.7s-0.9-0.4-1.7-0.4h-3c-0.9,0-1.4,0.1-1.7,0.4
			s-0.4,0.8-0.4,1.7v9.9c0,0.9,0.1,1.4,0.4,1.7c0.3,0.3,0.9,0.4,1.7,0.4h5.2c4.4,0,6.5,2.1,6.5,6.3v12.8c0,4.2-2.2,6.3-6.7,6.3H272
			c-4.4,0-6.6-2.1-6.6-6.3v-6.5h6.5v5.5c0,0.9,0.1,1.4,0.4,1.7s0.9,0.4,1.7,0.4h3c0.9,0,1.4-0.1,1.7-0.4
			C278.9,384.7,279,384.2,279,383.3z"/>
		<path class="st2" d="M304.5,390.6H298v-14.1l-9.5-30.5h6.5l6.2,24.5l5.8-24.5h6.5l-9.1,30.5V390.6z"/>
		<path class="st2" d="M330.4,383.3v-10.9c0-0.9-0.1-1.4-0.4-1.7c-0.3-0.3-0.8-0.4-1.7-0.4h-5.3c-4.3,0-6.5-2.1-6.5-6.3v-11.7
			c0-4.2,2.2-6.3,6.6-6.3h7c4.4,0,6.6,2.1,6.6,6.3v6.5h-6.5v-5.5c0-0.9-0.1-1.4-0.4-1.7s-0.9-0.4-1.7-0.4h-3c-0.9,0-1.4,0.1-1.7,0.4
			s-0.4,0.8-0.4,1.7v9.9c0,0.9,0.1,1.4,0.4,1.7c0.3,0.3,0.9,0.4,1.7,0.4h5.2c4.4,0,6.5,2.1,6.5,6.3v12.8c0,4.2-2.2,6.3-6.7,6.3h-6.9
			c-4.4,0-6.6-2.1-6.6-6.3v-6.5h6.5v5.5c0,0.9,0.1,1.4,0.4,1.7s0.9,0.4,1.7,0.4h3c0.9,0,1.4-0.1,1.7-0.4
			C330.3,384.7,330.4,384.2,330.4,383.3z"/>
		<path class="st2" d="M361.3,346v5.2h-7.5v39.3h-6.4v-39.3h-7.5V346H361.3z"/>
		<path class="st2" d="M371.8,385.4h12.9v5.2h-19.4V346h18.9v5.2h-12.4v13.7h10.2v5.2h-10.2V385.4z"/>
		<path class="st2" d="M395.4,390.6h-5.6V346h7l7.6,27.6L412,346h7v44.5h-5.6V358l-6.1,22.9h-5.8l-6.1-22.8V390.6z"/>
	</g>
</g>
</svg>
